# xmcd
#
# Track frame offsets:
#	150
#	15457
#	26967
#	62088
#	82748
#	95703
#	115018
#	125255
#	150130
#	171803
#	188725
#	215565
#	247980
#	277228
#
# Disc length: 4009 seconds
#
# Revision: 2
# Processed by: cddbd v1.5.2PL0 Copyright (c) Steve Scherf et al.
# Submitted via: audiograbber 1.83.01
#
DISCID=b20fa70e
DTITLE=Pappo's Blues - Pappo sigue vivo
DYEAR=1993
DGENRE=Blues
TTITLE0=Llegará La Paz
TTITLE1=El Hombre Suburbano
TTITLE2=El Hombre De La Valija
TTITLE3=El Gato De La Calle Negra
TTITLE4=Triple Seis
TTITLE5=Malas Compañías
TTITLE6=Tomé Demasiado
TTITLE7=Desconfiado
TTITLE8=Una Casa Con Diez Pinos
TTITLE9=Pájaro Metálico
TTITLE10=El Viejo
TTITLE11=T-Bone Steak
TTITLE12=Blues Got Soul
TTITLE13=Duelo Pappo-Edgar Winter
EXTD=ID3G: 0
EXTT0=
EXTT1=
EXTT2=
EXTT3=
EXTT4=
EXTT5=
EXTT6=
EXTT7=
EXTT8=
EXTT9=
EXTT10=
EXTT11=
EXTT12=
EXTT13=
PLAYORDER=
